<?xml version="1.0" encoding="UTF-8" standalone="no"?>
<!-- Created with Inkscape (http://www.inkscape.org/) -->

<svg
   xmlns:dc="http://purl.org/dc/elements/1.1/"
   xmlns:cc="http://creativecommons.org/ns#"
   xmlns:rdf="http://www.w3.org/1999/02/22-rdf-syntax-ns#"
   xmlns:svg="http://www.w3.org/2000/svg"
   xmlns="http://www.w3.org/2000/svg"
   xmlns:sodipodi="http://sodipodi.sourceforge.net/DTD/sodipodi-0.dtd"
   xmlns:inkscape="http://www.inkscape.org/namespaces/inkscape"
   width="744.09448819"
   height="1052.3622047"
   id="svg3013"
   version="1.1"
   inkscape:version="0.48.2 r9819"
   sodipodi:docname="kirsten_sandwich.svg">
  <defs
     id="defs3015" />
  <sodipodi:namedview
     id="base"
     pagecolor="#ffffff"
     bordercolor="#666666"
     borderopacity="1.0"
     inkscape:pageopacity="0.0"
     inkscape:pageshadow="2"
     inkscape:zoom="0.98994949"
     inkscape:cx="392.11206"
     inkscape:cy="520"
     inkscape:document-units="px"
     inkscape:current-layer="layer2"
     showgrid="false"
     inkscape:snap-global="false"
     inkscape:window-width="1280"
     inkscape:window-height="752"
     inkscape:window-x="0"
     inkscape:window-y="0"
     inkscape:window-maximized="1">
    <inkscape:grid
       type="xygrid"
       id="grid3113" />
  </sodipodi:namedview>
  <metadata
     id="metadata3018">
    <rdf:RDF>
      <cc:Work
         rdf:about="">
        <dc:format>image/svg+xml</dc:format>
        <dc:type
           rdf:resource="http://purl.org/dc/dcmitype/StillImage" />
        <dc:title></dc:title>
      </cc:Work>
    </rdf:RDF>
  </metadata>
  <g
     inkscape:groupmode="layer"
     id="layer2"
     inkscape:label="KSP">
    <rect
       style="fill:#000000;fill-opacity:1;stroke:none"
       id="rect3123"
       width="400"
       height="400"
       x="196.97975"
       y="324.06262" />
    <g
       id="g3167"
       transform="translate(0,6.0965369)">
      <text
         transform="scale(0.92668761,1.0791123)"
         sodipodi:linespacing="125%"
         id="text3103"
         y="415.42218"
         x="241.64043"
         style="font-size:85.17915344px;font-style:normal;font-variant:normal;font-weight:bold;font-stretch:normal;text-align:start;line-height:125%;letter-spacing:0px;word-spacing:0px;writing-mode:lr-tb;text-anchor:start;fill:#ffffff;fill-opacity:1;stroke:none;font-family:Arial;-inkscape-font-specification:Arial Bold"
         xml:space="preserve"><tspan
           y="415.42218"
           x="241.64043"
           id="tspan3105"
           sodipodi:role="line">KIRSTEN</tspan></text>
      <text
         transform="scale(0.91042882,1.0983835)"
         sodipodi:linespacing="125%"
         id="text3107"
         y="595.06067"
         x="248.07214"
         style="font-size:68.76563263px;font-style:normal;font-variant:normal;font-weight:bold;font-stretch:normal;text-align:start;line-height:125%;letter-spacing:0px;word-spacing:0px;writing-mode:lr-tb;text-anchor:start;fill:#ffffff;fill-opacity:1;stroke:none;font-family:Arial;-inkscape-font-specification:Arial Bold"
         xml:space="preserve"><tspan
           y="595.06067"
           x="248.07214"
           id="tspan3109"
           sodipodi:role="line">SANDWICH</tspan></text>
      <g
         transform="translate(-0.51585502,0.80357825)"
         id="g3162">
        <path
           inkscape:connector-curvature="0"
           id="path3115"
           style="fill:#ffffff;fill-opacity:1;stroke:none"
           d="m 337.89604,474.80746 c 0,5.1605 -4.18342,9.34392 -9.34392,9.34392 -5.1605,0 -9.34391,-4.18342 -9.34391,-9.34392 0,-5.1605 4.18341,-9.34391 9.34391,-9.34391 5.1605,0 9.34392,4.18341 9.34392,9.34391 z m -24.15873,11.79711 29.16317,0.0433 c 0,0 4.25405,-0.52922 7.48204,2.6046 3.22799,3.13382 2.30874,8.10968 2.30874,8.10968 l 0.16588,30.25254 c 0,0 0.33548,3.6977 -3.57143,3.6977 -3.9069,0 -3.57142,-3.6977 -3.57142,-3.6977 l 0,-27.03825 c 0,0 0.35714,-2.73088 -2.5,-2.73088 -2.85714,0 -2.5,2.73088 -2.5,2.73088 l -0.29587,75.2742 c 0,0 0.0306,4.46605 -4.51659,4.39032 -4.54723,-0.0757 -4.51658,-4.39032 -4.51658,-4.39032 l 0.0433,-43.63642 c 0,0 0.56635,-3.46683 -2.5,-3.4235 -3.06635,0.0433 -2.5,3.4235 -2.5,3.4235 l 0,43.63642 c 0,0 0.35714,4.39032 -5.35714,4.39032 -5.71429,0 -5.35714,-4.39032 -5.35714,-4.39032 l 0.16588,-75.2742 c 0,0 0.63135,-2.73088 -2.2258,-2.73088 -2.85714,0 -2.2258,2.73088 -2.2258,2.73088 l 0,27.03825 c 0,0 0.71428,3.6977 -3.57143,3.6977 -4.28572,0 -3.57143,-3.6977 -3.57143,-3.6977 l 0,-31.68111 c 0,0 -0.0433,-4.32904 3.52811,-7.18618 3.57143,-2.85714 5.92349,-2.14286 5.92349,-2.14286 z" />
        <path
           d="m 475.78186,475.56507 c 0,5.1605 -4.18342,9.34392 -9.34392,9.34392 -5.1605,0 -9.34391,-4.18342 -9.34391,-9.34392 0,-5.1605 4.18341,-9.34391 9.34391,-9.34391 5.1605,0 9.34392,4.18341 9.34392,9.34391 z m -24.15873,11.79711 29.16317,0.0433 c 0,0 4.25405,-0.52922 7.48204,2.6046 3.22799,3.13382 2.30874,8.10968 2.30874,8.10968 l 0.16588,30.25254 c 0,0 0.33548,3.6977 -3.57143,3.6977 -3.9069,0 -3.57142,-3.6977 -3.57142,-3.6977 l 0,-27.03825 c 0,0 0.35714,-2.73088 -2.5,-2.73088 -2.85714,0 -2.5,2.73088 -2.5,2.73088 l -0.29587,75.2742 c 0,0 0.0306,4.46605 -4.51659,4.39032 -4.54723,-0.0757 -4.51658,-4.39032 -4.51658,-4.39032 l 0.0433,-43.63642 c 0,0 0.56635,-3.46683 -2.5,-3.4235 -3.06635,0.0433 -2.5,3.4235 -2.5,3.4235 l 0,43.63642 c 0,0 0.35714,4.39032 -5.35714,4.39032 -5.71429,0 -5.35714,-4.39032 -5.35714,-4.39032 l 0.16588,-75.2742 c 0,0 0.63135,-2.73088 -2.2258,-2.73088 -2.85714,0 -2.2258,2.73088 -2.2258,2.73088 l 0,27.03825 c 0,0 0.71428,3.6977 -3.57143,3.6977 -4.28572,0 -3.57143,-3.6977 -3.57143,-3.6977 l 0,-31.68111 c 0,0 -0.0433,-4.32904 3.52811,-7.18618 3.57143,-2.85714 5.92349,-2.14286 5.92349,-2.14286 z"
           style="fill:#ffffff;fill-opacity:1;stroke:none"
           id="path3119"
           inkscape:connector-curvature="0" />
        <path
           inkscape:connector-curvature="0"
           id="path3121"
           style="fill:#ffffff;fill-opacity:1;stroke:none"
           d="m 406.46013,474.80746 c 0,5.1605 -4.18342,9.34392 -9.34392,9.34392 -5.1605,0 -9.34391,-4.18342 -9.34391,-9.34392 0,-5.1605 4.18341,-9.34391 9.34391,-9.34391 5.1605,0 9.34392,4.18341 9.34392,9.34391 z m -20.6232,11.79711 22.59718,0.0433 c 0,0 5.2642,-0.0241 8.49219,3.10968 3.22799,3.13382 4.32905,7.6046 4.32905,7.6046 l 5.46918,24.6967 c 0,0 0.33548,3.6977 -3.57143,3.6977 -3.9069,0 -4.83411,-3.19262 -4.83411,-3.19262 l -5.55584,-21.73495 c 0,0 0.35714,-2.73088 -2.5,-2.73088 -2.85714,0 -2.5,2.73088 -2.5,2.73088 l 11.46882,40.69835 -10.42803,0 0.17857,34.32331 c 0,0 0.0306,4.46605 -4.51659,4.39032 -4.54723,-0.0757 -5.27419,-4.13778 -5.27419,-4.13778 l 0.0433,-34.32331 -5.25254,-0.25254 0,34.32331 c 0,0 1.36729,4.39032 -4.34699,4.39032 -5.71429,0 -5.35714,-4.39032 -5.35714,-4.39032 l -0.21107,-34.32331 -9.0499,0 10.94208,-39.94074 c 0,0 0.63135,-2.73088 -2.2258,-2.73088 -2.85714,0 -2.2258,2.73088 -2.2258,2.73088 l -5.05077,20.21972 c 0,0 -0.29587,3.6977 -4.58158,3.6977 -4.28572,0 -3.57143,-3.6977 -3.57143,-3.6977 l 4.54569,-25.87273 c 0,0 1.99494,-5 5.54842,-7.69126 3.55347,-2.69126 7.43873,-1.63775 7.43873,-1.63775 z"
           sodipodi:nodetypes="sssssccsccsccsccccsccccsccccsccscczc" />
      </g>
    </g>
  </g>
</svg>
